<svg xmlns="http://www.w3.org/2000/svg" viewBox="0 0 200 120"><g fill="none" stroke="#1d3047" stroke-width="10" stroke-linecap="round" stroke-linejoin="round"><path d="M28 8 L28 46"/><path d="M72 8 L72 46"/><path d="M28 28 L72 28"/><path d="M28 46 L72 46"/><path d="M10 64 L142 64"/><path d="M50 64 L50 47"/><path d="M28 76 L72 76 L72 110 L28 110 Z"/></g><g transform="translate(148 60) scale(1.8)" fill="#2f95a0"><path d="M0 -1.4C-4.6-1.8-6-6.2-3.7-9.2C-2.5-10.7-1.2-9.4 0-7.7C1.2-9.4 2.5-10.7 3.7-9.2C6-6.2 4.6-1.8 0-1.4Z" transform="rotate(-2)"/><path d="M0 -1.4C-4.6-1.8-6-6.2-3.7-9.2C-2.5-10.7-1.2-9.4 0-7.7C1.2-9.4 2.5-10.7 3.7-9.2C6-6.2 4.6-1.8 0-1.4Z" transform="rotate(74)"/><path d="M0 -1.4C-4.6-1.8-6-6.2-3.7-9.2C-2.5-10.7-1.2-9.4 0-7.7C1.2-9.4 2.5-10.7 3.7-9.2C6-6.2 4.6-1.8 0-1.4Z" transform="rotate(142)"/><path d="M0 -1.4C-4.6-1.8-6-6.2-3.7-9.2C-2.5-10.7-1.2-9.4 0-7.7C1.2-9.4 2.5-10.7 3.7-9.2C6-6.2 4.6-1.8 0-1.4Z" transform="rotate(218)"/><path d="M0 -1.4C-4.6-1.8-6-6.2-3.7-9.2C-2.5-10.7-1.2-9.4 0-7.7C1.2-9.4 2.5-10.7 3.7-9.2C6-6.2 4.6-1.8 0-1.4Z" transform="rotate(286)"/><circle r="2.4" fill="#fffefb"/><circle r="1.2" opacity=".5"/></g><g fill="#2f95a0"><path d="M0-1.4C-4.6-1.8-6-6.2-3.7-9.2C-2.5-10.7-1.2-9.4 0-7.7C1.2-9.4 2.5-10.7 3.7-9.2C6-6.2 4.6-1.8 0-1.4Z" transform="translate(96 58) rotate(15)"/><path d="M0-1.4C-4.6-1.8-6-6.2-3.7-9.2C-2.5-10.7-1.2-9.4 0-7.7C1.2-9.4 2.5-10.7 3.7-9.2C6-6.2 4.6-1.8 0-1.4Z" transform="translate(120 52) rotate(-20) scale(1.1)"/><path d="M0-1.4C-4.6-1.8-6-6.2-3.7-9.2C-2.5-10.7-1.2-9.4 0-7.7C1.2-9.4 2.5-10.7 3.7-9.2C6-6.2 4.6-1.8 0-1.4Z" transform="translate(164 46) rotate(50) scale(1.3)"/><path d="M0-1.4C-4.6-1.8-6-6.2-3.7-9.2C-2.5-10.7-1.2-9.4 0-7.7C1.2-9.4 2.5-10.7 3.7-9.2C6-6.2 4.6-1.8 0-1.4Z" transform="translate(172 62) rotate(80) scale(1.1)"/></g></svg>
